<svg width="29" height="29" viewBox="0 0 29 29" fill="none" xmlns="http://www.w3.org/2000/svg">
<path d="M18.9829 15.3579C20.1675 14.4259 21.0322 13.1478 21.4566 11.7014C21.881 10.2551 21.8441 8.71241 21.3509 7.28803C20.8578 5.86365 19.9329 4.6284 18.705 3.75413C17.4771 2.87985 16.0073 2.41003 14.4999 2.41003C12.9926 2.41003 11.5227 2.87985 10.2949 3.75413C9.06696 4.6284 8.1421 5.86365 7.64894 7.28803C7.15578 8.71241 7.11885 10.2551 7.54327 11.7014C7.9677 13.1478 8.83238 14.4259 10.017 15.3579C7.98711 16.1712 6.21595 17.5201 4.89235 19.2607C3.56875 21.0014 2.74232 23.0687 2.50118 25.2421C2.48373 25.4008 2.4977 25.5613 2.5423 25.7146C2.5869 25.8679 2.66125 26.0109 2.76111 26.1354C2.96279 26.387 3.25613 26.5481 3.5766 26.5833C3.89707 26.6186 4.21842 26.5251 4.46995 26.3234C4.72149 26.1217 4.8826 25.8284 4.91785 25.5079C5.18318 23.1459 6.30947 20.9644 8.08153 19.3802C9.85359 17.7961 12.1472 16.9203 14.5241 16.9203C16.901 16.9203 19.1946 17.7961 20.9667 19.3802C22.7387 20.9644 23.865 23.1459 24.1304 25.5079C24.1632 25.8048 24.3049 26.0791 24.528 26.2777C24.7512 26.4762 25.04 26.5852 25.3387 26.5833H25.4716C25.7883 26.5469 26.0779 26.3867 26.277 26.1378C26.4762 25.8888 26.5689 25.5712 26.5349 25.2542C26.2927 23.0746 25.4618 21.002 24.1314 19.2587C22.801 17.5153 21.0212 16.1669 18.9829 15.3579ZM14.4999 14.5C13.544 14.5 12.6095 14.2165 11.8147 13.6854C11.0198 13.1544 10.4003 12.3995 10.0345 11.5163C9.66869 10.6331 9.57298 9.66131 9.75947 8.72374C9.94597 7.78616 10.4063 6.92495 11.0823 6.24899C11.7582 5.57304 12.6194 5.11271 13.557 4.92621C14.4946 4.73972 15.4664 4.83543 16.3496 5.20126C17.2327 5.56708 17.9876 6.18658 18.5187 6.98142C19.0498 7.77626 19.3333 8.71073 19.3333 9.66668C19.3333 10.9486 18.824 12.1779 17.9176 13.0844C17.0112 13.9908 15.7818 14.5 14.4999 14.5Z" fill="white"/>
</svg>
