<svg width="24" height="24" viewBox="0 0 24 24" fill="none" xmlns="http://www.w3.org/2000/svg">
<path d="M20.9967 13.6717C20.9956 15.3048 20.3466 16.8707 19.1922 18.0259C18.0378 19.181 16.4722 19.8309 14.8392 19.833H3.75342C3.55451 19.833 3.36374 19.754 3.22309 19.6133C3.08244 19.4727 3.00342 19.2819 3.00342 19.083C3.00342 18.8841 3.08244 18.6933 3.22309 18.5526C3.36374 18.412 3.55451 18.333 3.75342 18.333H14.8392C16.0676 18.322 17.242 17.8262 18.1068 16.9537C18.9716 16.0811 19.4567 14.9023 19.4567 13.6738C19.4567 12.4453 18.9716 11.2665 18.1068 10.3939C17.242 9.52136 16.0676 9.02562 14.8392 9.0146H5.84667L8.30104 11.0325C8.37761 11.0949 8.4411 11.1718 8.48787 11.2587C8.53464 11.3457 8.56377 11.4411 8.57359 11.5394C8.58341 11.6377 8.57371 11.7369 8.54507 11.8314C8.51643 11.9259 8.4694 12.0139 8.40668 12.0902C8.34397 12.1665 8.2668 12.2296 8.17961 12.276C8.09242 12.3224 7.99692 12.3511 7.89861 12.3605C7.80029 12.3699 7.70109 12.3598 7.60669 12.3307C7.5123 12.3017 7.42457 12.2543 7.34854 12.1912L3.27717 8.8436C3.26817 8.8361 3.26142 8.8271 3.25279 8.81923C3.23327 8.80152 3.21474 8.78274 3.19729 8.76298L3.19129 8.75735C3.18604 8.75135 3.17929 8.74685 3.17404 8.74085V8.7386C3.16617 8.72923 3.16054 8.71835 3.15342 8.7086C3.13867 8.689 3.12502 8.6686 3.11254 8.64748C3.10954 8.6426 3.10542 8.6381 3.10279 8.63285C3.10017 8.6276 3.09342 8.62048 3.09004 8.61373C3.08667 8.60698 3.08217 8.59348 3.07767 8.58373C3.06754 8.56198 3.05892 8.53985 3.05067 8.51698L3.04804 8.51023C3.04054 8.48885 3.03379 8.4671 3.02817 8.44535C3.02254 8.4236 3.01879 8.40073 3.01542 8.37785C3.01317 8.36398 3.00867 8.35085 3.00754 8.33698C3.00642 8.3231 3.00754 8.31035 3.00754 8.29723C3.00754 8.2841 3.00417 8.27585 3.00417 8.2646C3.00417 8.25335 3.00717 8.24285 3.00754 8.2316C3.00792 8.22035 3.00754 8.20535 3.00754 8.19223C3.00754 8.1791 3.01317 8.16485 3.01542 8.15098C3.01879 8.1281 3.02292 8.1056 3.02817 8.08348C3.03342 8.06135 3.04054 8.03998 3.04804 8.0186L3.05067 8.01185C3.05892 7.98898 3.06754 7.96685 3.07767 7.9451C3.08217 7.93535 3.08479 7.92485 3.09004 7.9151C3.09529 7.90535 3.09904 7.90273 3.10279 7.89598C3.10654 7.88923 3.10954 7.88623 3.11254 7.88135C3.12478 7.86025 3.13817 7.83985 3.15267 7.82023C3.15979 7.81048 3.16542 7.7996 3.17329 7.79023V7.78835C3.18079 7.77898 3.19017 7.7726 3.19804 7.7636C3.21529 7.74485 3.23292 7.7261 3.25204 7.7096C3.26067 7.70173 3.26742 7.69273 3.27642 7.68523L3.28017 7.68185L7.35004 4.3376C7.42607 4.27456 7.5138 4.22715 7.60819 4.1981C7.70259 4.16905 7.80179 4.15892 7.90011 4.16831C7.99842 4.1777 8.09392 4.20642 8.18111 4.25281C8.2683 4.29921 8.34547 4.36237 8.40818 4.43866C8.4709 4.51496 8.51793 4.60289 8.54657 4.69741C8.57521 4.79193 8.5849 4.89118 8.57509 4.98945C8.56527 5.08773 8.53614 5.1831 8.48937 5.27009C8.4426 5.35708 8.37911 5.43397 8.30254 5.49635L5.84817 7.5146H14.8407C16.4729 7.51679 18.0376 8.16622 19.1916 9.32046C20.3456 10.4747 20.9948 12.0395 20.9967 13.6717Z" fill="white" fill-opacity="0.75"/>
</svg>
