<svg width="23" height="7" viewBox="0 0 23 7" fill="none" xmlns="http://www.w3.org/2000/svg">
<path d="M2.54658 6.67714V0.233519H0.198242V6.67714H2.54658ZM7.53681 0.233519L7.00843 3.23159L6.71489 1.62069L6.42135 0.233519H3.48592V6.67714H5.48201V2.42614L6.30393 6.67714H7.77164L8.53486 2.33665V6.67714H10.5309V0.233519H7.53681ZM11.4703 6.67714V0.233519H15.1102C15.9908 0.233519 16.6366 0.72574 16.6366 1.3522V5.55846C16.6366 6.18492 15.9908 6.67714 15.1102 6.67714H11.4703ZM14.2296 1.39695L13.7012 1.3522V5.55846C13.9948 5.55846 14.2296 5.51371 14.2883 5.42422C14.4057 5.33472 14.4057 5.06624 14.4057 4.61876V2.11291V1.57594L14.2296 1.39695ZM21.0398 1.84442H21.2159C22.0378 1.84442 22.7423 2.33665 22.7423 2.96311V5.55846C22.7423 6.18492 22.0378 6.67714 21.2159 6.67714H21.0398C20.5701 6.67714 20.1004 6.49815 19.8069 6.18492L19.6895 6.58765H17.576V0.233519H19.8069V2.2919C20.1004 2.02341 20.5701 1.84442 21.0398 1.84442ZM20.5701 4.97674V3.45533L20.5114 2.96311C20.4527 2.87361 20.2766 2.82887 20.1591 2.82887C20.0417 2.82887 19.8656 2.87361 19.8069 2.96311V5.51371C19.8656 5.60321 20.0417 5.64795 20.1591 5.64795C20.2766 5.64795 20.5114 5.60321 20.5114 5.51371L20.5701 4.97674Z" fill="black"/>
</svg>
