<svg width="29" height="29" viewBox="0 0 29 29" fill="none" xmlns="http://www.w3.org/2000/svg">
<path d="M10.8751 12.0833C10.5546 12.0833 10.2473 12.2106 10.0207 12.4372C9.79405 12.6638 9.66675 12.9712 9.66675 13.2917V15.7083C9.66675 16.0288 9.79405 16.3361 10.0207 16.5627C10.2473 16.7894 10.5546 16.9167 10.8751 16.9167C11.1956 16.9167 11.5029 16.7894 11.7295 16.5627C11.9561 16.3361 12.0834 16.0288 12.0834 15.7083V13.2917C12.0834 12.9712 11.9561 12.6638 11.7295 12.4372C11.5029 12.2106 11.1956 12.0833 10.8751 12.0833ZM25.3751 13.2917C25.6956 13.2917 26.0029 13.1644 26.2295 12.9377C26.4561 12.7111 26.5834 12.4038 26.5834 12.0833V7.24999C26.5834 6.92952 26.4561 6.62218 26.2295 6.39557C26.0029 6.16896 25.6956 6.04166 25.3751 6.04166H3.62508C3.30461 6.04166 2.99727 6.16896 2.77066 6.39557C2.54405 6.62218 2.41675 6.92952 2.41675 7.24999V12.0833C2.41675 12.4038 2.54405 12.7111 2.77066 12.9377C2.99727 13.1644 3.30461 13.2917 3.62508 13.2917C3.94555 13.2917 4.2529 13.419 4.4795 13.6456C4.70611 13.8722 4.83341 14.1795 4.83341 14.5C4.83341 14.8205 4.70611 15.1278 4.4795 15.3544C4.2529 15.581 3.94555 15.7083 3.62508 15.7083C3.30461 15.7083 2.99727 15.8356 2.77066 16.0622C2.54405 16.2888 2.41675 16.5962 2.41675 16.9167V21.75C2.41675 22.0705 2.54405 22.3778 2.77066 22.6044C2.99727 22.831 3.30461 22.9583 3.62508 22.9583H25.3751C25.6956 22.9583 26.0029 22.831 26.2295 22.6044C26.4561 22.3778 26.5834 22.0705 26.5834 21.75V16.9167C26.5834 16.5962 26.4561 16.2888 26.2295 16.0622C26.0029 15.8356 25.6956 15.7083 25.3751 15.7083C25.0546 15.7083 24.7473 15.581 24.5207 15.3544C24.2941 15.1278 24.1667 14.8205 24.1667 14.5C24.1667 14.1795 24.2941 13.8722 24.5207 13.6456C24.7473 13.419 25.0546 13.2917 25.3751 13.2917ZM24.1667 11.0925C23.4669 11.3465 22.8623 11.8098 22.435 12.4194C22.0077 13.0291 21.7785 13.7555 21.7785 14.5C21.7785 15.2445 22.0077 15.9709 22.435 16.5805C22.8623 17.1902 23.4669 17.6535 24.1667 17.9075V20.5417H12.0834C12.0834 20.2212 11.9561 19.9138 11.7295 19.6872C11.5029 19.4606 11.1956 19.3333 10.8751 19.3333C10.5546 19.3333 10.2473 19.4606 10.0207 19.6872C9.79405 19.9138 9.66675 20.2212 9.66675 20.5417H4.83341V17.9075C5.53322 17.6535 6.13786 17.1902 6.56515 16.5805C6.99244 15.9709 7.22166 15.2445 7.22166 14.5C7.22166 13.7555 6.99244 13.0291 6.56515 12.4194C6.13786 11.8098 5.53322 11.3465 4.83341 11.0925V8.45832H9.66675C9.66675 8.77879 9.79405 9.08614 10.0207 9.31274C10.2473 9.53935 10.5546 9.66666 10.8751 9.66666C11.1956 9.66666 11.5029 9.53935 11.7295 9.31274C11.9561 9.08614 12.0834 8.77879 12.0834 8.45832H24.1667V11.0925Z" fill="white"/>
</svg>
