<svg width="34" height="33" viewBox="0 0 34 33" fill="none" xmlns="http://www.w3.org/2000/svg">
<path d="M28.9564 12.2602H26.6897C26.0638 12.2602 25.5564 12.7676 25.5564 13.3935C25.5564 14.0194 26.0638 14.5268 26.6897 14.5268H28.9564C29.5823 14.5268 30.0897 14.0194 30.0897 13.3935C30.0897 12.7676 29.5823 12.2602 28.9564 12.2602Z" fill="white" fill-opacity="0.75"/>
<path d="M28.9564 17.9268H26.6897C26.0638 17.9268 25.5564 18.4342 25.5564 19.0601C25.5564 19.686 26.0638 20.1934 26.6897 20.1934H28.9564C29.5823 20.1934 30.0897 19.686 30.0897 19.0601C30.0897 18.4342 29.5823 17.9268 28.9564 17.9268Z" fill="white" fill-opacity="0.75"/>
<path d="M27.1995 28.6139C27.1995 27.988 26.6921 27.4806 26.0662 27.4806C25.4403 27.4806 24.9329 27.988 24.9329 28.6139V30.8806C24.9329 31.5065 25.4403 32.0139 26.0662 32.0139C26.6921 32.0139 27.1995 31.5065 27.1995 30.8806V28.6139Z" fill="white" fill-opacity="0.75"/>
<path d="M9.06646 28.6139C9.06646 27.988 8.55905 27.4806 7.93313 27.4806C7.30721 27.4806 6.7998 27.988 6.7998 28.6139V30.8806C6.7998 31.5065 7.30721 32.0139 7.93313 32.0139C8.55905 32.0139 9.06646 31.5065 9.06646 30.8806V28.6139Z" fill="white" fill-opacity="0.75"/>
<path d="M30.5998 28.6936H3.39998C2.49825 28.6936 1.63345 28.3353 0.995832 27.6977C0.358211 27.0601 0 26.1953 0 25.2936V7.19433C0 6.29259 0.358211 5.42779 0.995832 4.79017C1.63345 4.15255 2.49825 3.79434 3.39998 3.79434H30.5998C31.5016 3.79434 32.3664 4.15255 33.004 4.79017C33.6416 5.42779 33.9998 6.29259 33.9998 7.19433V25.2596C34.0043 25.7089 33.9197 26.1547 33.7508 26.5711C33.582 26.9876 33.3323 27.3664 33.0161 27.6857C32.6999 28.0051 32.3236 28.2585 31.9089 28.4315C31.4941 28.6045 31.0492 28.6936 30.5998 28.6936ZM3.39998 6.027C3.09941 6.027 2.81114 6.1464 2.5986 6.35894C2.38606 6.57148 2.26666 6.85975 2.26666 7.16033V25.2596C2.26666 25.5601 2.38606 25.8484 2.5986 26.061C2.81114 26.2735 3.09941 26.3929 3.39998 26.3929H30.5998C30.9004 26.3929 31.1887 26.2735 31.4012 26.061C31.6138 25.8484 31.7332 25.5601 31.7332 25.2596V7.19433C31.7332 6.89375 31.6138 6.60548 31.4012 6.39294C31.1887 6.1804 30.9004 6.061 30.5998 6.061L3.39998 6.027Z" fill="white" fill-opacity="0.75"/>
<path d="M22.2018 24.7269H6.55054C5.92325 24.7239 5.32251 24.4734 4.87894 24.0298C4.43538 23.5863 4.18486 22.9855 4.18188 22.3582V10.481C4.18488 9.74953 4.47755 9.04906 4.99582 8.53292C5.5141 8.01677 6.21576 7.72698 6.9472 7.72698H22.2018C22.8291 7.72996 23.4298 7.98047 23.8734 8.42404C24.317 8.8676 24.5675 9.46835 24.5704 10.0956V22.3469C24.5705 22.9762 24.3213 23.5798 23.8774 24.0258C23.4335 24.4718 22.831 24.7239 22.2018 24.7269ZM6.93587 9.99364C6.80362 9.99364 6.67678 10.0462 6.58326 10.1397C6.48974 10.2332 6.43721 10.36 6.43721 10.4923V22.3469C6.43721 22.374 6.44795 22.3999 6.46708 22.419C6.48621 22.4382 6.51215 22.4489 6.53921 22.4489H22.2018C22.2288 22.4489 22.2548 22.4382 22.2739 22.419C22.293 22.3999 22.3038 22.374 22.3038 22.3469V10.0956C22.3038 10.0686 22.293 10.0426 22.2739 10.0235C22.2548 10.0044 22.2288 9.99364 22.2018 9.99364H6.93587ZM25.0804 1.14235C25.0812 1.34205 25.0292 1.53842 24.9297 1.71157C24.8302 1.88471 24.6867 2.02849 24.5138 2.12834L21.1211 3.79433H12.8787L9.48586 2.12834C9.35599 2.0543 9.24206 1.9553 9.15062 1.83704C9.05918 1.71878 8.99203 1.5836 8.95306 1.43928C8.91408 1.29497 8.90404 1.14436 8.92351 0.996148C8.94299 0.847933 8.99159 0.705035 9.06653 0.575684C9.16542 0.404396 9.30741 0.261968 9.4784 0.162557C9.64938 0.0631467 9.84341 0.0102141 10.0412 0.00902029C10.2397 0.00764916 10.4351 0.0584555 10.6079 0.156353L16.9998 3.79433L23.3918 0.14502C23.6534 -0.00180335 23.9625 -0.0389183 24.2515 0.0418098C24.5404 0.122538 24.7855 0.314523 24.9331 0.575684C25.031 0.748407 25.0818 0.943816 25.0804 1.14235Z" fill="white" fill-opacity="0.75"/>
</svg>
